<?xml version="1.0" encoding="UTF-8" standalone="no"?>
<!-- Created with Inkscape (http://www.inkscape.org/) -->

<svg
   width="192mm"
   height="32mm"
   viewBox="0 0 192 32"
   version="1.1"
   id="svg5"
   inkscape:version="1.2 (dc2aedaf03, 2022-05-15)"
   sodipodi:docname="die.svg"
   inkscape:export-filename="..\Sprites\die.png"
   inkscape:export-xdpi="101.6"
   inkscape:export-ydpi="101.6"
   xml:space="preserve"
   xmlns:inkscape="http://www.inkscape.org/namespaces/inkscape"
   xmlns:sodipodi="http://sodipodi.sourceforge.net/DTD/sodipodi-0.dtd"
   xmlns="http://www.w3.org/2000/svg"
   xmlns:svg="http://www.w3.org/2000/svg"><sodipodi:namedview
     id="namedview7"
     pagecolor="#505050"
     bordercolor="#ffffff"
     borderopacity="1"
     inkscape:showpageshadow="0"
     inkscape:pageopacity="0"
     inkscape:pagecheckerboard="1"
     inkscape:deskcolor="#505050"
     inkscape:document-units="mm"
     showgrid="false"
     inkscape:zoom="1.1893044"
     inkscape:cx="271.58732"
     inkscape:cy="150.50815"
     inkscape:window-width="1680"
     inkscape:window-height="987"
     inkscape:window-x="-8"
     inkscape:window-y="-8"
     inkscape:window-maximized="1"
     inkscape:current-layer="layer1" /><defs
     id="defs2" /><g
     inkscape:label="Layer 1"
     inkscape:groupmode="layer"
     id="layer1"><rect
       style="fill:#ffffff;stroke-width:0.612371"
       id="rect2678"
       width="192"
       height="32"
       x="0"
       y="4.4408921e-16" /><path
       fill="#000000"
       d="M 14.632741,6 7.33381,8.102345 6,12.787184 l 2.167386,-0.905271 0.476067,-0.198587 0.114,0.475885 0.399004,1.66912 0.292071,1.217125 -0.991808,-0.833174 -0.716838,-0.60259 -1.286751,1.379835 6.41401,5.801923 0.440318,-1.735884 0.34337,-1.359784 0.474563,1.325186 L 16.620643,26 23.913783,24.877583 26,16.220003 22.143897,9.875515 14.632788,6 Z m -2.630593,2.127728 -1.268284,1.702438 -0.1482,3.133038 L 9.345927,9.168917 12.002148,8.12777 Z m 0.813692,3.984812 5.158496,6.623152 4.783798,1.445191 -4.89634,-0.03601 -5.045954,-5.460634 v -2.571613 z m -5.000399,6.995116 6.389751,6.532497 -0.253675,-2.810307 -6.136121,-3.72219 z"
       id="path4833"
       style="stroke-width:0.0441061" /><g
       id="g4981"
       transform="matrix(0.06010834,0,0,0.04933024,67.815093,6.0000019)"><g
         id="g4922">
	<g
   id="g4920">
		<g
   id="Layer_5_77_">
			<g
   id="g4917">
				<path
   d="m 268.515,260.015 c -1.523,-2.409 -8.688,-11.193 -11.079,-14.108 -3.781,-4.608 -8.095,-4.108 -11.485,-0.034 -8.271,9.936 -19.832,23.728 -26.46,31.623 -4.397,5.24 -5.228,9.391 -1.73,13.266 1.542,1.709 7.954,9.045 7.954,9.045 -12.342,27.566 -7.276,61.031 15.353,83.66 29.284,29.285 76.767,29.285 106.051,0 29.284,-29.285 29.284,-76.766 0,-106.051 -21.265,-21.262 -52.09,-27.007 -78.604,-17.401 z m 51.777,96.627 c -13.552,13.551 -35.521,13.551 -49.068,0 -13.551,-13.55 -13.551,-35.519 0,-49.066 13.549,-13.55 35.519,-13.55 49.068,0 13.549,13.547 13.549,35.516 0,49.066 z"
   id="path4911" />
				<path
   d="m 151.469,208.117 c 8.522,-11.597 22.224,-29.08 29.38,-38.96 3.598,-4.966 3.931,-8.799 0.021,-14.211 C 154.247,118.092 73.446,8.208 73.446,8.208 62.269,-4.913 49.637,-1.985 45.375,14.716 L 37.66,44.942 c -4.263,16.7 2.222,40.337 14.409,52.524 0,0 66.482,82.781 88.285,110.658 3.582,4.578 8.113,4.078 11.115,-0.007 z"
   id="path4913" />
				<path
   d="m 59.064,273.079 c -29.285,29.285 -29.285,76.766 0,106.051 29.285,29.285 76.766,29.285 106.051,0 22.629,-22.629 27.693,-56.094 15.352,-83.66 L 341.383,103.216 C 353.571,91.028 360.055,67.393 355.791,50.692 L 348.075,20.466 C 343.812,3.765 331.179,0.837 320.006,13.958 L 142.45,249.074 c -1.666,1.956 -3.262,4.194 -4.787,6.605 -26.515,-9.604 -57.34,-3.858 -78.599,17.4 z m 26.822,30.16 c 13.551,-13.549 35.52,-13.549 49.068,0 13.551,13.551 13.551,35.52 0,49.066 -13.549,13.552 -35.518,13.552 -49.068,0 -13.549,-13.546 -13.549,-35.515 0,-49.066 z"
   id="path4915" />
			</g>
		</g>
	</g>
</g><g
         id="g4924">
</g><g
         id="g4926">
</g><g
         id="g4928">
</g><g
         id="g4930">
</g><g
         id="g4932">
</g><g
         id="g4934">
</g><g
         id="g4936">
</g><g
         id="g4938">
</g><g
         id="g4940">
</g><g
         id="g4942">
</g><g
         id="g4944">
</g><g
         id="g4946">
</g><g
         id="g4948">
</g><g
         id="g4950">
</g><g
         id="g4952">
</g></g><g
       id="g5265"
       transform="matrix(0.06734014,0,0,0.07170244,37.999994,5.352208)"><g
         id="g5206">
	<g
   id="g5204">
		<g
   id="g5202">
			<path
   d="M 274.556,9.36 7.53,121.792 c -8.754,3.686 -10.206,15.481 -2.607,21.18 L 54.446,180.114 278.762,15.616 c 2.981,-2.981 -0.321,-7.892 -4.206,-6.256 z"
   id="path5194" />
			<path
   d="m 290.875,25.249 -2.358,1.729 -181.647,181.648 93.153,62.101 c 6.749,4.5 15.929,1.35 18.494,-6.346 L 296.79,29.561 c 1.184,-3.552 -2.896,-6.526 -5.915,-4.312 z"
   id="path5196" />
			<polygon
   points="71.92,287.965 129.44,241.619 98.665,221.103 "
   id="polygon5198" />
			<path
   d="m 89.868,204.51 c 0.001,-0.001 0.002,-0.002 0.003,-0.003 L 192.293,102.085 c 1.609,-1.609 -0.557,-4.133 -2.392,-2.788 l -128.04,93.895 v 79.714 l 26.357,-65.892 c 0.388,-0.969 0.957,-1.81 1.65,-2.504 z"
   id="path5200" />
		</g>
	</g>
</g><g
         id="g5208">
</g><g
         id="g5210">
</g><g
         id="g5212">
</g><g
         id="g5214">
</g><g
         id="g5216">
</g><g
         id="g5218">
</g><g
         id="g5220">
</g><g
         id="g5222">
</g><g
         id="g5224">
</g><g
         id="g5226">
</g><g
         id="g5228">
</g><g
         id="g5230">
</g><g
         id="g5232">
</g><g
         id="g5234">
</g><g
         id="g5236">
</g></g><g
       id="g5383"
       transform="matrix(0.35714541,0,0,0.33332362,100.57131,5.3333528)"><path
         d="m 16.726,25.981 c 0,2.318 2.036,4.194 4.548,4.194 0.237,0 0.47,-0.016 0.698,-0.049 -0.286,0.655 -0.62,1.469 -0.698,1.877 -0.335,1.721 1.537,3.166 3.432,3.166 0,0 0.917,0.076 1.114,-0.104 0.709,-0.654 0,-3.593 0,-3.593 0,-0.496 0.436,-0.897 0.974,-0.897 0.536,0 0.97,0.401 0.97,0.897 0,0 -0.707,3.043 0,3.697 0.578,0.532 2.688,0.532 3.265,0 0.709,-0.654 0,-3.697 0,-3.697 0,-0.496 0.437,-0.897 0.972,-0.897 0.535,0 0.972,0.401 0.972,0.897 0,0 -0.709,3.043 0,3.697 0.576,0.532 2.687,0.532 3.263,0 0.709,-0.654 0,-3.697 0,-3.697 0,-0.496 0.436,-0.897 0.972,-0.897 0.538,0 0.972,0.401 0.972,0.897 0,0 -0.709,2.938 0,3.593 0.197,0.181 1.116,0.104 1.116,0.104 1.896,0 3.766,-1.445 3.433,-3.166 -0.078,-0.408 -0.412,-1.222 -0.7,-1.877 0.228,0.033 0.463,0.049 0.7,0.049 2.512,0 4.548,-1.876 4.548,-4.194 0,-1.35 -0.69,-2.549 -1.765,-3.316 a 13.16,13.16 0 0 0 1.765,-6.577 C 47.274,8.309 40.437,2 32,2 23.563,2 16.726,8.309 16.726,16.088 c 0,2.377 0.639,4.614 1.765,6.577 -1.074,0.768 -1.765,1.967 -1.765,3.316 m 26.195,-8.752 c 3.681,0.203 -0.769,5.066 -2.486,6.227 -1.716,1.161 -5.839,-0.999 -5.601,-2.407 0.353,-2.07 5.819,-3.945 8.087,-3.82 m -12.304,8.472 c 0.541,-0.946 0.814,-1.804 1.479,-1.804 0.665,0 0.937,0.857 1.48,1.804 0.467,0.814 1.797,1.415 0.995,2.153 -0.875,0.808 -4.078,0.808 -4.953,0 -0.819,-0.755 0.53,-1.338 0.999,-2.153 m -9.343,-8.472 c 2.265,-0.125 7.734,1.75 8.086,3.819 0.239,1.408 -3.885,3.568 -5.601,2.407 -1.716,-1.159 -6.167,-6.022 -2.485,-6.226"
         fill="currentColor"
         id="path5371" /><path
         d="m 57.684,50.325 c -2.099,-1.119 -3.493,-0.295 -3.493,-0.295 -1.442,0.85 -3.829,0.901 -5.312,0.111 L 37.439,44.05 48.878,37.958 c 1.482,-0.787 3.871,-0.737 5.312,0.112 0,0 1.395,0.822 3.493,-0.295 2.214,-1.18 2.975,-3.792 1.695,-5.838 L 58.954,31.263 C 58.255,30.775 57.593,29.716 57.483,28.91 L 57.06,28.236 c -1.279,-2.044 -4.112,-2.743 -6.329,-1.563 -2.099,1.116 -2.021,2.642 -2.021,2.642 0.076,1.577 -1.07,3.511 -2.551,4.298 L 32,41.153 17.839,33.613 c -1.48,-0.787 -2.628,-2.721 -2.55,-4.298 0,0 0.077,-1.525 -2.021,-2.642 -2.217,-1.18 -5.051,-0.48 -6.33,1.563 L 6.516,28.91 c -0.11,0.806 -0.771,1.864 -1.473,2.353 l -0.421,0.674 c -1.28,2.046 -0.52,4.658 1.696,5.838 2.097,1.118 3.492,0.295 3.492,0.295 1.44,-0.85 3.83,-0.899 5.31,-0.112 L 26.561,44.05 15.12,50.142 c -1.48,0.79 -3.87,0.738 -5.31,-0.111 0,0 -1.395,-0.824 -3.492,0.295 -2.215,1.179 -2.976,3.794 -1.696,5.837 l 0.421,0.674 c 0.701,0.489 1.363,1.548 1.473,2.354 l 0.422,0.674 c 1.278,2.043 4.113,2.744 6.33,1.563 2.099,-1.117 2.021,-2.643 2.021,-2.643 -0.078,-1.574 1.07,-3.51 2.55,-4.297 L 32,46.947 l 14.16,7.54 c 1.48,0.787 2.627,2.723 2.551,4.297 0,0 -0.077,1.525 2.021,2.643 2.217,1.181 5.05,0.479 6.329,-1.563 l 0.423,-0.674 c 0.109,-0.806 0.771,-1.864 1.471,-2.354 l 0.424,-0.674 c 1.279,-2.043 0.518,-4.658 -1.695,-5.837"
         fill="currentColor"
         id="path5373" /></g><g
       id="g5499"
       transform="matrix(0.07683543,0,0,0.07210689,165.3442,6)"><g
         id="g5444">
	<path
   d="m 257.799,55.704 c -7.706,-3.866 -17.016,-2.36 -23.111,3.734 l -39.2,39.201 -38.526,-86.757 C 153.753,4.657 146.589,0 138.683,0 130.777,0 123.613,4.657 120.405,11.883 L 81.878,98.64 42.678,59.439 C 36.584,53.346 27.273,51.839 19.567,55.706 11.864,59.569 7.502,67.935 8.745,76.463 l 17.879,122.785 c 1.431,9.829 9.858,17.118 19.791,17.118 h 184.536 c 9.933,0 18.36,-7.289 19.791,-17.118 l 17.88,-122.786 c 1.242,-8.528 -3.12,-16.894 -10.823,-20.758 z"
   id="path5440" />
	<path
   d="M 230.951,237.366 H 46.415 c -11.046,0 -20,8.954 -20,20 0,11.046 8.954,20 20,20 h 184.536 c 11.046,0 20,-8.954 20,-20 0,-11.046 -8.954,-20 -20,-20 z"
   id="path5442" />
</g><g
         id="g5446">
</g><g
         id="g5448">
</g><g
         id="g5450">
</g><g
         id="g5452">
</g><g
         id="g5454">
</g><g
         id="g5456">
</g><g
         id="g5458">
</g><g
         id="g5460">
</g><g
         id="g5462">
</g><g
         id="g5464">
</g><g
         id="g5466">
</g><g
         id="g5468">
</g><g
         id="g5470">
</g><g
         id="g5472">
</g><g
         id="g5474">
</g></g></g></svg>
