<?xml version="1.0" encoding="UTF-8" standalone="no"?>
<!-- Created with Inkscape (http://www.inkscape.org/) -->

<svg
   width="96mm"
   height="32mm"
   viewBox="0 0 96 32"
   version="1.1"
   id="svg5"
   inkscape:version="1.2 (dc2aedaf03, 2022-05-15)"
   sodipodi:docname="die.svg"
   inkscape:export-filename="..\die.png"
   inkscape:export-xdpi="101.6"
   inkscape:export-ydpi="101.6"
   xml:space="preserve"
   xmlns:inkscape="http://www.inkscape.org/namespaces/inkscape"
   xmlns:sodipodi="http://sodipodi.sourceforge.net/DTD/sodipodi-0.dtd"
   xmlns="http://www.w3.org/2000/svg"
   xmlns:svg="http://www.w3.org/2000/svg"><sodipodi:namedview
     id="namedview7"
     pagecolor="#505050"
     bordercolor="#ffffff"
     borderopacity="1"
     inkscape:showpageshadow="0"
     inkscape:pageopacity="0"
     inkscape:pagecheckerboard="1"
     inkscape:deskcolor="#505050"
     inkscape:document-units="mm"
     showgrid="false"
     inkscape:zoom="1.1893044"
     inkscape:cx="271.58732"
     inkscape:cy="150.50815"
     inkscape:window-width="1680"
     inkscape:window-height="987"
     inkscape:window-x="-8"
     inkscape:window-y="-8"
     inkscape:window-maximized="1"
     inkscape:current-layer="layer1" /><defs
     id="defs2" /><g
     inkscape:label="Layer 1"
     inkscape:groupmode="layer"
     id="layer1"><rect
       style="fill:#ffffff;stroke-width:0.433012"
       id="rect2678"
       width="96"
       height="32"
       x="0"
       y="4.4408921e-16" /><path
       fill="#000000"
       d="M 14.632741,6 7.33381,8.102345 6,12.787184 l 2.167386,-0.905271 0.476067,-0.198587 0.114,0.475885 0.399004,1.66912 0.292071,1.217125 -0.991808,-0.833174 -0.716838,-0.60259 -1.286751,1.379835 6.41401,5.801923 0.440318,-1.735884 0.34337,-1.359784 0.474563,1.325186 L 16.620643,26 23.913783,24.877583 26,16.220003 22.143897,9.875515 14.632788,6 Z m -2.630593,2.127728 -1.268284,1.702438 -0.1482,3.133038 L 9.345927,9.168917 12.002148,8.12777 Z m 0.813692,3.984812 5.158496,6.623152 4.783798,1.445191 -4.89634,-0.03601 -5.045954,-5.460634 v -2.571613 z m -5.000399,6.995116 6.389751,6.532497 -0.253675,-2.810307 -6.136121,-3.72219 z"
       id="path4833"
       style="stroke-width:0.0441061" /><g
       id="g4981"
       transform="matrix(0.06010834,0,0,0.04933024,67.815093,6.0000019)"><g
         id="g4922">
	<g
   id="g4920">
		<g
   id="Layer_5_77_">
			<g
   id="g4917">
				<path
   d="m 268.515,260.015 c -1.523,-2.409 -8.688,-11.193 -11.079,-14.108 -3.781,-4.608 -8.095,-4.108 -11.485,-0.034 -8.271,9.936 -19.832,23.728 -26.46,31.623 -4.397,5.24 -5.228,9.391 -1.73,13.266 1.542,1.709 7.954,9.045 7.954,9.045 -12.342,27.566 -7.276,61.031 15.353,83.66 29.284,29.285 76.767,29.285 106.051,0 29.284,-29.285 29.284,-76.766 0,-106.051 -21.265,-21.262 -52.09,-27.007 -78.604,-17.401 z m 51.777,96.627 c -13.552,13.551 -35.521,13.551 -49.068,0 -13.551,-13.55 -13.551,-35.519 0,-49.066 13.549,-13.55 35.519,-13.55 49.068,0 13.549,13.547 13.549,35.516 0,49.066 z"
   id="path4911" />
				<path
   d="m 151.469,208.117 c 8.522,-11.597 22.224,-29.08 29.38,-38.96 3.598,-4.966 3.931,-8.799 0.021,-14.211 C 154.247,118.092 73.446,8.208 73.446,8.208 62.269,-4.913 49.637,-1.985 45.375,14.716 L 37.66,44.942 c -4.263,16.7 2.222,40.337 14.409,52.524 0,0 66.482,82.781 88.285,110.658 3.582,4.578 8.113,4.078 11.115,-0.007 z"
   id="path4913" />
				<path
   d="m 59.064,273.079 c -29.285,29.285 -29.285,76.766 0,106.051 29.285,29.285 76.766,29.285 106.051,0 22.629,-22.629 27.693,-56.094 15.352,-83.66 L 341.383,103.216 C 353.571,91.028 360.055,67.393 355.791,50.692 L 348.075,20.466 C 343.812,3.765 331.179,0.837 320.006,13.958 L 142.45,249.074 c -1.666,1.956 -3.262,4.194 -4.787,6.605 -26.515,-9.604 -57.34,-3.858 -78.599,17.4 z m 26.822,30.16 c 13.551,-13.549 35.52,-13.549 49.068,0 13.551,13.551 13.551,35.52 0,49.066 -13.549,13.552 -35.518,13.552 -49.068,0 -13.549,-13.546 -13.549,-35.515 0,-49.066 z"
   id="path4915" />
			</g>
		</g>
	</g>
</g><g
         id="g4924">
</g><g
         id="g4926">
</g><g
         id="g4928">
</g><g
         id="g4930">
</g><g
         id="g4932">
</g><g
         id="g4934">
</g><g
         id="g4936">
</g><g
         id="g4938">
</g><g
         id="g4940">
</g><g
         id="g4942">
</g><g
         id="g4944">
</g><g
         id="g4946">
</g><g
         id="g4948">
</g><g
         id="g4950">
</g><g
         id="g4952">
</g></g><g
       id="g5265"
       transform="matrix(0.06734014,0,0,0.07170244,37.999994,5.352208)"><g
         id="g5206">
	<g
   id="g5204">
		<g
   id="g5202">
			<path
   d="M 274.556,9.36 7.53,121.792 c -8.754,3.686 -10.206,15.481 -2.607,21.18 L 54.446,180.114 278.762,15.616 c 2.981,-2.981 -0.321,-7.892 -4.206,-6.256 z"
   id="path5194" />
			<path
   d="m 290.875,25.249 -2.358,1.729 -181.647,181.648 93.153,62.101 c 6.749,4.5 15.929,1.35 18.494,-6.346 L 296.79,29.561 c 1.184,-3.552 -2.896,-6.526 -5.915,-4.312 z"
   id="path5196" />
			<polygon
   points="71.92,287.965 129.44,241.619 98.665,221.103 "
   id="polygon5198" />
			<path
   d="m 89.868,204.51 c 0.001,-0.001 0.002,-0.002 0.003,-0.003 L 192.293,102.085 c 1.609,-1.609 -0.557,-4.133 -2.392,-2.788 l -128.04,93.895 v 79.714 l 26.357,-65.892 c 0.388,-0.969 0.957,-1.81 1.65,-2.504 z"
   id="path5200" />
		</g>
	</g>
</g><g
         id="g5208">
</g><g
         id="g5210">
</g><g
         id="g5212">
</g><g
         id="g5214">
</g><g
         id="g5216">
</g><g
         id="g5218">
</g><g
         id="g5220">
</g><g
         id="g5222">
</g><g
         id="g5224">
</g><g
         id="g5226">
</g><g
         id="g5228">
</g><g
         id="g5230">
</g><g
         id="g5232">
</g><g
         id="g5234">
</g><g
         id="g5236">
</g></g></g></svg>
